<svg width="18" height="18" viewBox="0 0 18 18" fill="none" xmlns="http://www.w3.org/2000/svg">
<path d="M14.3279 4.46618C14.4047 4.38784 14.4963 4.3256 14.5975 4.28312C14.6986 4.24063 14.8072 4.21875 14.9169 4.21875C15.0265 4.21875 15.1351 4.24063 15.2363 4.28312C15.3374 4.3256 15.429 4.38784 15.5058 4.46618C15.8275 4.7913 15.832 5.31668 15.517 5.64743L8.86492 13.5112C8.78939 13.5941 8.69774 13.6608 8.59557 13.7071C8.49339 13.7534 8.38285 13.7783 8.2707 13.7804C8.15855 13.7825 8.04714 13.7617 7.94331 13.7193C7.83947 13.6769 7.74538 13.6137 7.66679 13.5337L3.61904 9.43193C3.46293 9.27272 3.37549 9.05865 3.37549 8.83568C3.37549 8.61271 3.46293 8.39863 3.61904 8.23943C3.69582 8.16109 3.78745 8.09885 3.88858 8.05637C3.9897 8.01388 4.09829 7.992 4.20798 7.992C4.31767 7.992 4.42625 8.01388 4.52738 8.05637C4.62851 8.09885 4.72014 8.16109 4.79692 8.23943L8.23042 11.7191L14.3054 4.49093L14.3279 4.46618Z" fill="#F2C161"/>
</svg>
