<svg width="1921" height="99" viewBox="0 0 1921 99" fill="none" xmlns="http://www.w3.org/2000/svg">
<g opacity="0.01">
<g filter="url(#filter0_ddd_3_6715)">
<rect x="1761.46" y="31.0081" width="138.036" height="36.0094" rx="10" fill="white"/>
</g>
<mask id="mask0_3_6715" style="mask-type:alpha" maskUnits="userSpaceOnUse" x="1770" y="39" width="13" height="21">
<g clip-path="url(#clip0_3_6715)">
<g clip-path="url(#clip1_3_6715)">
<path d="M1770.96 40.5105H1782.96V46.5121H1776.96L1770.96 40.5105ZM1770.96 46.5121H1776.96L1782.96 52.5137H1776.96V58.5152L1770.96 52.5137V46.5121Z" fill="black"/>
</g>
</g>
</mask>
<g mask="url(#mask0_3_6715)">
<rect x="1770.96" y="39.0102" width="12.0031" height="20.0052" fill="black"/>
</g>
<mask id="mask1_3_6715" style="mask-type:alpha" maskUnits="userSpaceOnUse" x="1792" y="44" width="98" height="11">
<g clip-path="url(#clip2_3_6715)">
<g clip-path="url(#clip3_3_6715)">
<path d="M1884.73 53.5451V46.5803H1886.31V47.7426H1886.36C1886.49 47.3395 1886.71 47.0314 1887.01 46.8154C1887.32 46.5953 1887.7 46.4823 1888.08 46.4913C1888.18 46.4913 1888.28 46.4953 1888.38 46.5043C1888.49 46.5123 1888.58 46.5213 1888.65 46.5293V48.0157C1888.54 47.9927 1888.44 47.9777 1888.33 47.9717C1888.18 47.9547 1888.03 47.9467 1887.88 47.9467C1887.59 47.9467 1887.33 48.0097 1887.1 48.1367C1886.87 48.2597 1886.69 48.4368 1886.56 48.6699C1886.42 48.9229 1886.36 49.208 1886.36 49.4951V53.5461L1884.73 53.5451ZM1880.28 53.6912C1879.58 53.6912 1878.97 53.5431 1878.47 53.247C1877.96 52.947 1877.57 52.5249 1877.29 51.9837C1877.02 51.4416 1876.89 50.8114 1876.89 50.0912C1876.89 49.381 1877.02 48.7509 1877.29 48.2057C1877.55 47.6796 1877.95 47.2375 1878.45 46.9294C1878.94 46.6203 1879.52 46.4663 1880.18 46.4663C1880.63 46.4663 1881.05 46.5423 1881.44 46.6943C1881.83 46.8424 1882.18 47.0674 1882.47 47.3675C1882.77 47.6636 1883 48.0347 1883.16 48.4778C1883.33 48.9179 1883.42 49.4331 1883.42 50.0212V50.5113H1877.62V49.392H1882.6L1881.85 49.7091C1881.86 49.357 1881.79 49.0059 1881.65 48.6809C1881.54 48.4038 1881.34 48.1667 1881.09 48.0007C1880.85 47.8366 1880.55 47.7536 1880.19 47.7536C1879.84 47.7536 1879.54 47.8366 1879.29 48.0017C1879.03 48.1667 1878.84 48.3918 1878.7 48.6749C1878.56 48.9759 1878.5 49.303 1878.5 49.6331V50.3833C1878.5 50.8104 1878.58 51.1765 1878.72 51.4806C1878.87 51.7807 1879.08 52.0117 1879.35 52.1728C1879.62 52.3298 1879.94 52.4078 1880.3 52.4078C1880.55 52.4078 1880.78 52.3718 1880.97 52.2998C1881.17 52.2308 1881.34 52.1198 1881.49 51.9757C1881.63 51.8357 1881.74 51.6696 1881.81 51.4746L1883.32 51.6846C1883.22 52.0767 1883.02 52.4368 1882.75 52.7319C1882.47 53.032 1882.11 53.2671 1881.69 53.4361C1881.27 53.6061 1880.8 53.6902 1880.28 53.6902V53.6912ZM1865.63 53.5451V46.5803H1867.18L1867.22 48.2057H1867.1C1867.21 47.8036 1867.37 47.4755 1867.58 47.2215C1867.78 46.9744 1868.04 46.7784 1868.33 46.6503C1868.62 46.5233 1868.91 46.4603 1869.23 46.4603C1869.74 46.4603 1870.16 46.6163 1870.5 46.9294C1870.84 47.2425 1871.06 47.6846 1871.17 48.2567H1870.97C1871.05 47.8947 1871.22 47.5576 1871.46 47.2725C1871.68 47.0104 1871.96 46.8034 1872.28 46.6693C1872.6 46.5283 1872.96 46.4573 1873.31 46.4593C1873.73 46.4593 1874.11 46.5523 1874.45 46.7394C1874.8 46.9214 1875.07 47.1915 1875.26 47.5516C1875.46 47.9117 1875.56 48.3538 1875.56 48.8789V53.5451H1873.93V49.126C1873.93 48.6859 1873.81 48.3648 1873.56 48.1607C1873.32 47.9527 1873.01 47.8426 1872.69 47.8506C1872.42 47.8506 1872.19 47.9077 1872 48.0207C1871.8 48.1337 1871.65 48.2988 1871.55 48.4978C1871.44 48.7159 1871.38 48.9579 1871.39 49.202V53.5451H1869.8V49.05C1869.8 48.6859 1869.68 48.3958 1869.46 48.1797C1869.23 47.9597 1868.94 47.8496 1868.59 47.8496C1868.35 47.8496 1868.13 47.9077 1867.93 48.0217C1867.72 48.1367 1867.56 48.3058 1867.44 48.5108C1867.33 48.7259 1867.27 48.9929 1867.27 49.311V53.5451H1865.63ZM1860.28 53.6792C1859.71 53.6792 1859.2 53.5351 1858.76 53.247C1858.33 52.955 1857.98 52.5399 1857.73 52.0027C1857.48 51.4646 1857.35 50.8224 1857.35 50.0722C1857.35 49.315 1857.48 48.6669 1857.74 48.1297C1857.99 47.5916 1858.34 47.1815 1858.78 46.8974C1859.23 46.6133 1859.75 46.4653 1860.28 46.4723C1860.65 46.4723 1860.97 46.5333 1861.23 46.6563C1861.5 46.7754 1861.72 46.9264 1861.89 47.1134C1862.07 47.2955 1862.2 47.4815 1862.31 47.6726H1862.36V46.5803H1863.98V53.5451H1862.36V52.4598H1862.31C1862.2 52.6719 1862.05 52.8659 1861.89 53.037C1861.71 53.224 1861.49 53.3781 1861.22 53.5011C1860.92 53.6271 1860.6 53.6872 1860.28 53.6792ZM1860.71 52.3268C1861.06 52.3268 1861.37 52.2328 1861.62 52.0467C1861.89 51.8427 1862.09 51.5676 1862.2 51.2535C1862.33 50.9104 1862.4 50.5143 1862.4 50.0662C1862.4 49.6131 1862.33 49.219 1862.2 48.8859C1862.09 48.5738 1861.89 48.3018 1861.62 48.1037C1861.37 47.9177 1861.07 47.8246 1860.71 47.8246C1860.35 47.8246 1860.04 47.9177 1859.79 48.1047C1859.54 48.2908 1859.35 48.5508 1859.22 48.8849C1859.09 49.219 1859.02 49.6131 1859.02 50.0652C1859.02 50.5153 1859.09 50.9084 1859.22 51.2465C1859.35 51.5856 1859.54 51.8497 1859.79 52.0407C1860.05 52.2308 1860.35 52.3268 1860.71 52.3268ZM1852.89 53.5451V46.5803H1854.47V47.7426H1854.53C1854.66 47.3395 1854.87 47.0314 1855.17 46.8154C1855.47 46.5993 1855.83 46.4913 1856.24 46.4913C1856.34 46.4913 1856.44 46.4953 1856.55 46.5043C1856.65 46.5123 1856.74 46.5213 1856.82 46.5293V48.0157C1856.71 47.9927 1856.6 47.9777 1856.49 47.9717C1856.34 47.9547 1856.2 47.9467 1856.05 47.9467C1855.76 47.9467 1855.5 48.0097 1855.27 48.1367C1855.04 48.2597 1854.86 48.4368 1854.73 48.6699C1854.59 48.9229 1854.52 49.208 1854.53 49.4951V53.5461L1852.89 53.5451ZM1845.63 53.5451V44.0847H1851.79V45.52H1847.32V48.2758H1851.39V49.6911H1847.32V53.5451H1845.63ZM1836.24 49.5071V53.5451H1834.61V46.5803H1836.17L1836.19 48.3138H1836C1836.2 47.7086 1836.5 47.2515 1836.88 46.9424C1837.27 46.6293 1837.76 46.4723 1838.34 46.4723C1838.82 46.4723 1839.24 46.5763 1839.6 46.7834C1839.97 46.9904 1840.25 47.2935 1840.45 47.6916C1840.65 48.0847 1840.75 48.5678 1840.75 49.139V53.5451H1839.12V49.393C1839.12 48.9099 1839 48.5378 1838.75 48.2758C1838.51 48.0087 1838.17 47.8756 1837.74 47.8756C1837.45 47.8756 1837.2 47.9387 1836.97 48.0657C1836.74 48.1917 1836.55 48.3818 1836.43 48.6118C1836.31 48.8529 1836.24 49.152 1836.24 49.5071ZM1831.33 53.5451V46.5803H1832.97V53.5451H1831.33ZM1832.15 45.577C1831.9 45.5831 1831.65 45.49 1831.47 45.317C1831.29 45.1509 1831.18 44.9149 1831.19 44.6688C1831.18 44.4247 1831.29 44.1917 1831.47 44.0286C1831.65 43.8526 1831.89 43.7566 1832.15 43.7616C1832.41 43.7616 1832.64 43.8496 1832.83 44.0276C1833.02 44.2017 1833.11 44.4147 1833.11 44.6688C1833.11 44.9229 1833.02 45.1389 1832.83 45.317C1832.64 45.49 1832.4 45.5831 1832.15 45.577ZM1823.72 53.6912C1823.02 53.6912 1822.41 53.5431 1821.91 53.247C1821.4 52.949 1820.99 52.5099 1820.73 51.9837C1820.46 51.4416 1820.33 50.8114 1820.33 50.0912C1820.33 49.381 1820.46 48.7509 1820.73 48.2057C1820.99 47.6796 1821.39 47.2375 1821.89 46.9294C1822.38 46.6203 1822.96 46.4663 1823.62 46.4663C1824.07 46.4663 1824.49 46.5423 1824.88 46.6943C1825.27 46.8414 1825.62 47.0704 1825.91 47.3675C1826.21 47.6636 1826.44 48.0347 1826.6 48.4778C1826.77 48.9179 1826.86 49.4331 1826.86 50.0212V50.5113H1821.06V49.392H1826.04L1825.29 49.7091C1825.29 49.316 1825.23 48.9729 1825.1 48.6809C1824.98 48.4038 1824.79 48.1667 1824.54 48.0007C1824.29 47.8366 1823.99 47.7536 1823.63 47.7536C1823.31 47.7456 1823 47.8316 1822.73 48.0017C1822.47 48.1667 1822.28 48.3918 1822.14 48.6749C1822.01 48.9759 1821.94 49.303 1821.95 49.6331V50.3833C1821.95 50.8104 1822.02 51.1765 1822.16 51.4806C1822.31 51.7807 1822.52 52.0117 1822.79 52.1728C1823.06 52.3298 1823.38 52.4078 1823.74 52.4078C1823.99 52.4078 1824.22 52.3718 1824.42 52.2998C1824.61 52.2308 1824.78 52.1198 1824.93 51.9757C1825.07 51.8357 1825.18 51.6696 1825.25 51.4746L1826.76 51.6846C1826.66 52.0767 1826.46 52.4368 1826.19 52.7319C1825.91 53.032 1825.56 53.2671 1825.13 53.4361C1824.68 53.6111 1824.2 53.6982 1823.72 53.6902L1823.72 53.6912ZM1815.28 53.6792C1814.75 53.6882 1814.22 53.5381 1813.77 53.247C1813.33 52.955 1812.99 52.5399 1812.74 52.0027C1812.49 51.4646 1812.36 50.8224 1812.36 50.0722C1812.36 49.315 1812.49 48.6669 1812.74 48.1297C1813 47.5916 1813.35 47.1815 1813.79 46.8974C1814.23 46.6143 1814.72 46.4723 1815.28 46.4723C1815.65 46.4723 1815.97 46.5333 1816.24 46.6563C1816.5 46.7754 1816.72 46.9264 1816.89 47.1134C1817.06 47.2955 1817.2 47.4835 1817.3 47.6786H1817.35V44.0847H1818.99V53.5451H1817.39V52.4528H1817.32C1817.21 52.6679 1817.06 52.8649 1816.9 53.037C1816.71 53.232 1816.48 53.3901 1816.24 53.5011C1815.97 53.6191 1815.66 53.6792 1815.28 53.6792ZM1815.71 52.3268C1816.06 52.3268 1816.37 52.2328 1816.62 52.0467C1816.89 51.8427 1817.09 51.5676 1817.2 51.2535C1817.34 50.9104 1817.41 50.5143 1817.41 50.0662C1817.41 49.6131 1817.34 49.219 1817.2 48.8859C1817.09 48.5738 1816.89 48.3018 1816.62 48.1037C1816.36 47.9137 1816.04 47.8156 1815.71 47.8246C1815.38 47.8156 1815.06 47.9147 1814.8 48.1047C1814.55 48.2908 1814.36 48.5528 1814.22 48.8909C1814.09 49.268 1814.03 49.6661 1814.03 50.0662C1814.03 50.5143 1814.1 50.9084 1814.23 51.2465C1814.36 51.5856 1814.55 51.8497 1814.8 52.0407C1815.05 52.2308 1815.35 52.3268 1815.71 52.3268ZM1807.32 53.6792C1806.79 53.6882 1806.26 53.5381 1805.81 53.247C1805.37 52.955 1805.03 52.5399 1804.78 52.0027C1804.53 51.4646 1804.4 50.8224 1804.4 50.0722C1804.4 49.315 1804.53 48.6669 1804.78 48.1297C1805.04 47.5916 1805.39 47.1815 1805.83 46.8974C1806.27 46.6143 1806.77 46.4723 1807.32 46.4723C1807.7 46.4723 1808.02 46.5333 1808.28 46.6563C1808.55 46.7754 1808.77 46.9264 1808.94 47.1134C1809.11 47.2955 1809.25 47.4815 1809.35 47.6726H1809.41V46.5803H1811.03V53.5451H1809.41V52.4598H1809.35C1809.24 52.6719 1809.1 52.8659 1808.93 53.037C1808.76 53.224 1808.53 53.3781 1808.27 53.5011C1807.97 53.6271 1807.65 53.6872 1807.32 53.6792ZM1807.75 52.3268C1808.11 52.3268 1808.41 52.2328 1808.67 52.0467C1808.92 51.8567 1809.11 51.5916 1809.25 51.2535C1809.38 50.9104 1809.45 50.5143 1809.45 50.0662C1809.45 49.6131 1809.38 49.219 1809.25 48.8859C1809.13 48.5738 1808.93 48.3018 1808.67 48.1037C1808.42 47.9177 1808.11 47.8246 1807.75 47.8246C1807.39 47.8246 1807.09 47.9177 1806.84 48.1047C1806.58 48.3058 1806.38 48.5758 1806.27 48.8849C1806.14 49.219 1806.07 49.6131 1806.07 50.0652C1806.07 50.5153 1806.14 50.9084 1806.27 51.2465C1806.4 51.5856 1806.59 51.8497 1806.84 52.0407C1807.09 52.2308 1807.4 52.3268 1807.75 52.3268ZM1792.97 53.5451V44.0847H1795.47L1797.29 48.9989C1797.35 49.181 1797.42 49.409 1797.5 49.6851C1797.58 49.9602 1797.66 50.2563 1797.75 50.5743C1797.83 50.8874 1797.91 51.1915 1797.98 51.4886C1798.06 51.7807 1798.12 52.0367 1798.17 52.2568H1797.81C1798.01 51.3966 1798.24 50.5413 1798.48 49.6911C1798.56 49.411 1798.63 49.181 1798.69 48.9989L1800.48 44.0847H1802.99V53.5451H1801.32V48.7519C1801.32 48.2057 1801.33 47.6596 1801.34 47.1134L1801.37 46.1422C1801.37 45.8161 1801.38 45.505 1801.39 45.209H1801.53C1801.44 45.535 1801.35 45.8691 1801.25 46.2122L1800.95 47.2085C1800.85 47.5266 1800.76 47.8186 1800.67 48.0847C1800.6 48.3088 1800.53 48.5308 1800.45 48.7519L1798.69 53.5451H1797.27L1795.48 48.7519L1795.26 48.0917C1795.17 47.8026 1795.07 47.5126 1794.99 47.2215L1794.68 46.2312C1794.58 45.8911 1794.48 45.55 1794.38 45.209H1794.56C1794.56 45.492 1794.57 45.7971 1794.58 46.1232C1794.59 46.4443 1794.59 46.7684 1794.6 47.0944C1794.61 47.4165 1794.61 47.7206 1794.62 48.0087C1794.63 48.2968 1794.63 48.5438 1794.63 48.7519V53.5451H1792.97Z" fill="black"/>
</g>
</g>
</mask>
<g mask="url(#mask1_3_6715)">
<rect x="1792.97" y="44.0115" width="97.0253" height="10.0026" fill="black"/>
</g>
<mask id="mask2_3_6715" style="mask-type:alpha" maskUnits="userSpaceOnUse" x="1760" y="30" width="141" height="39">
<rect x="1760.46" y="30.0078" width="140.036" height="38.0099" fill="url(#paint0_linear_3_6715)"/>
</mask>
<g mask="url(#mask2_3_6715)">
<g opacity="0.06" filter="url(#filter1_i_3_6715)">
<rect x="1760.46" y="30.0078" width="140.036" height="38.0099" rx="11" fill="white" fill-opacity="0.01"/>
</g>
</g>
<g opacity="0.04" filter="url(#filter2_i_3_6715)">
<rect x="1760.46" y="30.0078" width="140.036" height="38.0099" rx="11" fill="white" fill-opacity="0.01"/>
</g>
</g>
<defs>
<filter id="filter0_ddd_3_6715" x="1739.95" y="19.5051" width="181.047" height="79.0206" filterUnits="userSpaceOnUse" color-interpolation-filters="sRGB">
<feFlood flood-opacity="0" result="BackgroundImageFix"/>
<feColorMatrix in="SourceAlpha" type="matrix" values="0 0 0 0 0 0 0 0 0 0 0 0 0 0 0 0 0 0 127 0" result="hardAlpha"/>
<feMorphology radius="4.5" operator="erode" in="SourceAlpha" result="effect1_dropShadow_3_6715"/>
<feOffset dy="10"/>
<feGaussianBlur stdDeviation="13"/>
<feComposite in2="hardAlpha" operator="out"/>
<feColorMatrix type="matrix" values="0 0 0 0 0 0 0 0 0 0 0 0 0 0 0 0 0 0 0.02 0"/>
<feBlend mode="normal" in2="BackgroundImageFix" result="effect1_dropShadow_3_6715"/>
<feColorMatrix in="SourceAlpha" type="matrix" values="0 0 0 0 0 0 0 0 0 0 0 0 0 0 0 0 0 0 127 0" result="hardAlpha"/>
<feMorphology radius="3" operator="erode" in="SourceAlpha" result="effect2_dropShadow_3_6715"/>
<feOffset dy="2.28853"/>
<feGaussianBlur stdDeviation="2.9751"/>
<feComposite in2="hardAlpha" operator="out"/>
<feColorMatrix type="matrix" values="0 0 0 0 0 0 0 0 0 0 0 0 0 0 0 0 0 0 0.14 0"/>
<feBlend mode="normal" in2="effect1_dropShadow_3_6715" result="effect2_dropShadow_3_6715"/>
<feColorMatrix in="SourceAlpha" type="matrix" values="0 0 0 0 0 0 0 0 0 0 0 0 0 0 0 0 0 0 127 0" result="hardAlpha"/>
<feMorphology radius="1.5" operator="erode" in="SourceAlpha" result="effect3_dropShadow_3_6715"/>
<feOffset dy="0.602187"/>
<feGaussianBlur stdDeviation="0.782845"/>
<feComposite in2="hardAlpha" operator="out"/>
<feColorMatrix type="matrix" values="0 0 0 0 0 0 0 0 0 0 0 0 0 0 0 0 0 0 0.17 0"/>
<feBlend mode="normal" in2="effect2_dropShadow_3_6715" result="effect3_dropShadow_3_6715"/>
<feBlend mode="normal" in="SourceGraphic" in2="effect3_dropShadow_3_6715" result="shape"/>
</filter>
<filter id="filter1_i_3_6715" x="1760.46" y="30.0078" width="140.036" height="38.0099" filterUnits="userSpaceOnUse" color-interpolation-filters="sRGB">
<feFlood flood-opacity="0" result="BackgroundImageFix"/>
<feBlend mode="normal" in="SourceGraphic" in2="BackgroundImageFix" result="shape"/>
<feColorMatrix in="SourceAlpha" type="matrix" values="0 0 0 0 0 0 0 0 0 0 0 0 0 0 0 0 0 0 127 0" result="hardAlpha"/>
<feMorphology radius="1" operator="erode" in="SourceAlpha" result="effect1_innerShadow_3_6715"/>
<feOffset/>
<feComposite in2="hardAlpha" operator="arithmetic" k2="-1" k3="1"/>
<feColorMatrix type="matrix" values="0 0 0 0 0 0 0 0 0 0 0 0 0 0 0 0 0 0 1 0"/>
<feBlend mode="normal" in2="shape" result="effect1_innerShadow_3_6715"/>
</filter>
<filter id="filter2_i_3_6715" x="1760.46" y="30.0078" width="140.036" height="38.0099" filterUnits="userSpaceOnUse" color-interpolation-filters="sRGB">
<feFlood flood-opacity="0" result="BackgroundImageFix"/>
<feBlend mode="normal" in="SourceGraphic" in2="BackgroundImageFix" result="shape"/>
<feColorMatrix in="SourceAlpha" type="matrix" values="0 0 0 0 0 0 0 0 0 0 0 0 0 0 0 0 0 0 127 0" result="hardAlpha"/>
<feMorphology radius="1" operator="erode" in="SourceAlpha" result="effect1_innerShadow_3_6715"/>
<feOffset/>
<feComposite in2="hardAlpha" operator="arithmetic" k2="-1" k3="1"/>
<feColorMatrix type="matrix" values="0 0 0 0 0 0 0 0 0 0 0 0 0 0 0 0 0 0 1 0"/>
<feBlend mode="normal" in2="shape" result="effect1_innerShadow_3_6715"/>
</filter>
<linearGradient id="paint0_linear_3_6715" x1="1830.48" y1="30.0078" x2="1830.48" y2="68.0177" gradientUnits="userSpaceOnUse">
<stop offset="0.65" stop-opacity="0"/>
<stop offset="1"/>
</linearGradient>
<clipPath id="clip0_3_6715">
<rect width="12" height="20" fill="white" transform="translate(1770.96 39.0102) scale(1.00026)"/>
</clipPath>
<clipPath id="clip1_3_6715">
<rect width="12" height="20" fill="white" transform="translate(1770.96 39.0102) scale(1.00026)"/>
</clipPath>
<clipPath id="clip2_3_6715">
<rect width="97" height="10" fill="white" transform="translate(1792.97 44.0115) scale(1.00026)"/>
</clipPath>
<clipPath id="clip3_3_6715">
<rect width="97" height="10" fill="white" transform="translate(1792.97 44.0115) scale(1.00026)"/>
</clipPath>
</defs>
</svg>
