<svg width="97" height="97" viewBox="0 0 97 97" fill="none" xmlns="http://www.w3.org/2000/svg">
<g filter="url(#filter0_d_9_14)">
<g clip-path="url(#clip0_9_14)">
<rect x="16" y="14.67" width="65" height="65" rx="6" fill="#FAF7FF"/>
<g clip-path="url(#clip1_9_14)">
<mask id="mask0_9_14" style="mask-type:luminance" maskUnits="userSpaceOnUse" x="-2" y="-8" width="100" height="108">
<path d="M97.7148 -7.73013H-1.6582V99.9167H97.7148V-7.73013Z" fill="white"/>
<path d="M48.48 22.7333L26.98 57.3205L48.48 70.4068L69.98 57.3205L48.48 22.7333Z" fill="black"/>
</mask>
<g mask="url(#mask0_9_14)">
<path d="M48.48 22.7333L26.98 57.3205L48.48 70.4068L69.98 57.3205L48.48 22.7333Z" fill="black" stroke="black" stroke-width="1.86661"/>
</g>
<path d="M48.48 22.7333L26.98 57.3205L48.48 70.4068L69.98 57.3205L48.48 22.7333Z" fill="#FDFCFF" stroke="white" stroke-width="1.86661"/>
</g>
<g clip-path="url(#clip2_9_14)">
<g clip-path="url(#clip3_9_14)">
<path d="M48.7798 23.57V48.0837L28.98 56.57L48.7798 23.57Z" fill="url(#paint0_linear_9_14)"/>
</g>
</g>
<g clip-path="url(#clip4_9_14)">
<g clip-path="url(#clip5_9_14)">
<path d="M47.98 48.57V68.5206L28.98 56.1704" fill="url(#paint1_linear_9_14)"/>
</g>
</g>
<g clip-path="url(#clip6_9_14)">
<g clip-path="url(#clip7_9_14)">
<path d="M48.9189 25.57L47.98 48.1148L67.7071 56.57L48.9189 25.57Z" fill="url(#paint2_linear_9_14)"/>
</g>
</g>
<g clip-path="url(#clip8_9_14)">
<g clip-path="url(#clip9_9_14)">
<path d="M47.98 66.57L66.9269 56.1492L47.98 48.57V66.57Z" fill="url(#paint3_linear_9_14)"/>
</g>
</g>
<rect x="17" y="15.67" width="63" height="63" rx="5" stroke="white" stroke-width="2"/>
</g>
</g>
<defs>
<filter id="filter0_d_9_14" x="0" y="-1.70469e-05" width="97" height="97" filterUnits="userSpaceOnUse" color-interpolation-filters="sRGB">
<feFlood flood-opacity="0" result="BackgroundImageFix"/>
<feColorMatrix in="SourceAlpha" type="matrix" values="0 0 0 0 0 0 0 0 0 0 0 0 0 0 0 0 0 0 127 0" result="hardAlpha"/>
<feOffset dy="1.33"/>
<feGaussianBlur stdDeviation="8"/>
<feComposite in2="hardAlpha" operator="out"/>
<feColorMatrix type="matrix" values="0 0 0 0 0.94902 0 0 0 0 0.756863 0 0 0 0 0.380392 0 0 0 0.3 0"/>
<feBlend mode="normal" in2="BackgroundImageFix" result="effect1_dropShadow_9_14"/>
<feBlend mode="normal" in="SourceGraphic" in2="effect1_dropShadow_9_14" result="shape"/>
</filter>
<linearGradient id="paint0_linear_9_14" x1="28.98" y1="25.7126" x2="56.3194" y2="39.986" gradientUnits="userSpaceOnUse">
<stop stop-color="white"/>
<stop offset="0.556869" stop-color="#F2C161"/>
<stop offset="1" stop-color="#C9CBFF"/>
</linearGradient>
<linearGradient id="paint1_linear_9_14" x1="38.4327" y1="48.57" x2="38.5369" y2="68.5205" gradientUnits="userSpaceOnUse">
<stop stop-color="#F2C161"/>
<stop offset="1" stop-color="white"/>
</linearGradient>
<linearGradient id="paint2_linear_9_14" x1="57.7945" y1="25.57" x2="58.0368" y2="56.5689" gradientUnits="userSpaceOnUse">
<stop stop-color="#F2C161" stop-opacity="0.25"/>
<stop offset="0.524951" stop-color="#F2C161"/>
<stop offset="1" stop-color="#F2C161" stop-opacity="0.09"/>
</linearGradient>
<linearGradient id="paint3_linear_9_14" x1="66.5996" y1="66.57" x2="49.2755" y2="47.682" gradientUnits="userSpaceOnUse">
<stop stop-color="#D1DBFF"/>
<stop offset="0.556869" stop-color="#F2C161"/>
<stop offset="1" stop-color="white"/>
</linearGradient>
<clipPath id="clip0_9_14">
<rect x="16" y="14.67" width="65" height="65" rx="6" fill="white"/>
</clipPath>
<clipPath id="clip1_9_14">
<rect width="43" height="48" fill="white" transform="translate(26.98 22.57)"/>
</clipPath>
<clipPath id="clip2_9_14">
<rect width="20" height="33" fill="white" transform="translate(28.98 23.57)"/>
</clipPath>
<clipPath id="clip3_9_14">
<rect width="19.7998" height="33" fill="white" transform="translate(28.98 23.57)"/>
</clipPath>
<clipPath id="clip4_9_14">
<rect width="19" height="20" fill="white" transform="translate(28.98 48.57)"/>
</clipPath>
<clipPath id="clip5_9_14">
<rect width="19" height="19.9506" fill="white" transform="translate(28.98 48.57)"/>
</clipPath>
<clipPath id="clip6_9_14">
<rect width="20" height="31" fill="white" transform="translate(47.98 25.57)"/>
</clipPath>
<clipPath id="clip7_9_14">
<rect width="19.7271" height="31" fill="white" transform="translate(47.98 25.57)"/>
</clipPath>
<clipPath id="clip8_9_14">
<rect width="19" height="18" fill="white" transform="translate(47.98 48.57)"/>
</clipPath>
<clipPath id="clip9_9_14">
<rect width="18.9469" height="18" fill="white" transform="translate(47.98 48.57)"/>
</clipPath>
</defs>
</svg>
