<svg width="377" height="284" viewBox="0 0 377 284" fill="none" xmlns="http://www.w3.org/2000/svg">
<g clip-path="url(#clip0_9_2112)">
<mask id="mask0_9_2112" style="mask-type:alpha" maskUnits="userSpaceOnUse" x="51" y="43" width="272" height="208">
<path d="M311.995 89.2888L96.5902 43.5032C89.1549 41.9228 81.8522 46.6409 80.2792 54.0415L51.7967 188.041C50.2237 195.441 54.976 202.722 62.4113 204.302L277.816 250.088C285.251 251.668 292.554 246.95 294.127 239.549L322.609 105.55C324.182 98.1497 319.43 90.8692 311.995 89.2888Z" fill="white"/>
</mask>
<g mask="url(#mask0_9_2112)">
<g opacity="0.4">
<path d="M53.9973 202.514L286.23 251.876L203.848 139.282C199.726 133.649 197.665 130.832 194.971 129.357C192.599 128.058 189.896 127.483 187.2 127.705C184.139 127.957 181.111 129.692 175.054 133.162L53.9973 202.514Z" fill="#473355" fill-opacity="0.4"/>
<path d="M67.46 205.376L272.767 249.015L206.576 134.495C202.335 127.156 200.214 123.487 197.184 121.655C194.524 120.046 191.396 119.381 188.311 119.769C184.798 120.21 181.368 122.699 174.508 127.679L67.46 205.376Z" fill="#553353" fill-opacity="0.2"/>
<path d="M53.9971 202.514L286.23 251.876L208.64 123.412C204.406 116.402 202.289 112.897 199.319 111.132C196.708 109.581 193.657 108.932 190.641 109.287C187.209 109.692 183.85 112.033 177.131 116.714L53.9971 202.514Z" fill="#523355" fill-opacity="0.1"/>
</g>
<path d="M52.1849 198.627L175.772 131.519C181.66 128.321 184.604 126.722 187.571 126.507C190.186 126.316 192.803 126.874 195.113 128.114C197.733 129.521 199.77 132.181 203.842 137.502L290.793 251.095" stroke="#FF00DD" stroke-opacity="0.06" stroke-width="1.71642"/>
<g style="mix-blend-mode:multiply" opacity="0.7">
<path d="M88.1758 41.7148L320.409 91.0774L199.352 160.43C193.295 163.899 190.267 165.635 187.206 165.886C184.51 166.108 181.807 165.533 179.435 164.234C176.741 162.76 174.68 159.943 170.558 154.309L88.1758 41.7148Z" fill="#55334E" fill-opacity="0.4"/>
<path d="M101.639 44.5771L306.946 88.2165L199.898 165.913C193.038 170.893 189.608 173.382 186.095 173.823C183.01 174.211 179.882 173.546 177.222 171.937C174.192 170.105 172.071 166.436 167.83 159.097L101.639 44.5771Z" fill="#55334D" fill-opacity="0.2"/>
<path d="M88.1758 41.7148L320.409 91.0774L197.275 176.877C190.556 181.558 187.197 183.899 183.765 184.304C180.749 184.659 177.698 184.01 175.087 182.459C172.117 180.694 170 177.189 165.766 170.18L88.1758 41.7148Z" fill="#4D3355" fill-opacity="0.1"/>
<path d="M96.5903 43.5039L311.995 89.2895L188.547 177.117C183.617 180.624 176.72 179.158 173.643 173.949L96.5903 43.5039Z" fill="#C82FD9" fill-opacity="0.05"/>
<path d="M86.8491 39.6826L322.448 89.7606L189.727 168.706C185.092 171.463 179.099 170.19 175.986 165.785L86.8491 39.6826Z" fill="#4D3355" fill-opacity="0.1"/>
</g>
<path d="M84.9399 44.5285L170.546 156.102C174.625 161.418 176.665 164.076 179.287 165.48C181.599 166.718 184.216 167.272 186.83 167.079C189.797 166.86 192.739 165.258 198.624 162.054L324.26 93.6469" stroke="#FF00DD" stroke-opacity="0.06" stroke-width="1.71642"/>
<path d="M311.817 90.1265L96.4124 44.341C89.4418 42.8593 82.5955 47.2826 81.1208 54.2206L52.6383 188.22C51.1636 195.158 55.6189 201.983 62.5895 203.465L277.994 249.25C284.964 250.732 291.811 246.309 293.285 239.371L321.768 105.372C323.243 98.4336 318.787 91.6082 311.817 90.1265Z" stroke="white" stroke-opacity="0.4" stroke-width="1.71642"/>
</g>
</g>
<defs>
<clipPath id="clip0_9_2112">
<rect width="320.002" height="207.202" fill="white" transform="translate(52.0601 13.0303) rotate(12)"/>
</clipPath>
</defs>
</svg>
