<svg width="377" height="285" viewBox="0 0 377 285" fill="none" xmlns="http://www.w3.org/2000/svg">
<g clip-path="url(#clip0_9_2075)">
<mask id="mask0_9_2075" style="mask-type:alpha" maskUnits="userSpaceOnUse" x="54" y="43" width="272" height="208">
<path d="M280.689 43.6107L65.285 89.3962C57.8498 90.9766 53.0975 98.2572 54.6705 105.658L83.153 239.657C84.726 247.057 92.0287 251.776 99.464 250.195L314.868 204.41C322.304 202.829 327.056 195.549 325.483 188.148L297 54.149C295.427 46.7484 288.125 42.0303 280.689 43.6107Z" fill="white"/>
</mask>
<g mask="url(#mask0_9_2075)">
<g opacity="0.4">
<path d="M91.0495 251.984L323.282 202.621L202.226 133.269C196.169 129.799 193.141 128.064 190.08 127.812C187.384 127.59 184.681 128.165 182.308 129.464C179.615 130.939 177.554 133.756 173.432 139.389L91.0495 251.984Z" fill="#473355" fill-opacity="0.4"/>
<path d="M104.513 249.122L309.82 205.482L202.772 127.785C195.912 122.806 192.482 120.317 188.969 119.876C185.884 119.488 182.756 120.153 180.096 121.762C177.066 123.593 174.945 127.263 170.703 134.602L104.513 249.122Z" fill="#553353" fill-opacity="0.2"/>
<path d="M91.0497 251.983L323.283 202.621L200.149 116.821C193.43 112.14 190.071 109.799 186.639 109.395C183.623 109.039 180.572 109.688 177.961 111.239C174.991 113.004 172.874 116.509 168.64 123.519L91.0497 251.983Z" fill="#523355" fill-opacity="0.1"/>
</g>
<path d="M87.8137 249.17L173.42 137.596C177.499 132.28 179.538 129.622 182.161 128.218C184.472 126.981 187.09 126.426 189.704 126.619C192.671 126.839 195.613 128.441 201.498 131.645L327.134 200.052" stroke="#FF00DD" stroke-opacity="0.06" stroke-width="1.71642"/>
<g style="mix-blend-mode:multiply" opacity="0.7">
<path d="M56.8711 91.1846L289.104 41.8221L206.721 154.417C202.6 160.05 200.539 162.867 197.845 164.342C195.473 165.641 192.769 166.215 190.073 165.993C187.013 165.742 183.984 164.007 177.928 160.537L56.8711 91.1846Z" fill="#55334E" fill-opacity="0.4"/>
<path d="M70.3335 88.3232L275.641 44.6839L209.45 159.204C205.208 166.543 203.087 170.212 200.058 172.044C197.397 173.653 194.269 174.318 191.184 173.93C187.671 173.489 184.241 170.999 177.381 166.02L70.3335 88.3232Z" fill="#55334D" fill-opacity="0.2"/>
<path d="M56.8711 91.1846L289.104 41.8221L211.514 170.287C207.28 177.296 205.163 180.801 202.192 182.566C199.582 184.118 196.531 184.766 193.515 184.411C190.083 184.006 186.724 181.666 180.005 176.984L56.8711 91.1846Z" fill="#4D3355" fill-opacity="0.1"/>
<path d="M65.2852 89.3955L280.69 43.61L203.637 174.056C200.56 179.264 193.663 180.731 188.733 177.223L65.2852 89.3955Z" fill="#C82FD9" fill-opacity="0.05"/>
<path d="M54.832 89.8672L290.431 39.7893L201.294 165.892C198.181 170.296 192.188 171.57 187.553 168.813L54.832 89.8672Z" fill="#4D3355" fill-opacity="0.1"/>
</g>
<path d="M55.0587 95.0715L178.645 162.18C184.534 165.377 187.478 166.976 190.445 167.192C193.06 167.382 195.676 166.825 197.986 165.585C200.607 164.178 202.644 161.517 206.716 156.197L293.667 42.6032" stroke="#FF00DD" stroke-opacity="0.06" stroke-width="1.71642"/>
<path d="M280.868 44.4477L65.4631 90.2333C58.4926 91.7149 54.0373 98.5404 55.512 105.478L83.9945 239.478C85.4692 246.416 92.3155 250.839 99.2861 249.357L314.69 203.572C321.661 202.09 326.116 195.265 324.642 188.327L296.159 54.3274C294.684 47.3894 287.838 42.9661 280.868 44.4477Z" stroke="white" stroke-opacity="0.4" stroke-width="1.71642"/>
</g>
</g>
<defs>
<clipPath id="clip0_9_2075">
<rect width="320.002" height="207.202" fill="white" transform="translate(12.21 79.6699) rotate(-12)"/>
</clipPath>
</defs>
</svg>
