<svg width="24" height="24" viewBox="0 0 24 24" fill="none" xmlns="http://www.w3.org/2000/svg">
<mask id="mask0_9_751" style="mask-type:alpha" maskUnits="userSpaceOnUse" x="0" y="0" width="24" height="24">
<g clip-path="url(#clip0_9_751)">
<path d="M16.281 9.219C16.421 9.36 16.501 9.551 16.501 9.75C16.501 9.949 16.421 10.14 16.281 10.281L11.031 15.531C10.89 15.671 10.699 15.751 10.5 15.751C10.301 15.751 10.11 15.671 9.969 15.531L7.719 13.281C7.426 12.988 7.426 12.512 7.719 12.219C8.012 11.926 8.488 11.926 8.781 12.219L10.5 13.94L15.219 9.219C15.36 9.079 15.551 8.999 15.75 8.999C15.949 8.999 16.14 9.079 16.281 9.219ZM21.75 12C21.75 17.385 17.385 21.75 12 21.75C6.615 21.75 2.25 17.385 2.25 12C2.25 6.615 6.615 2.25 12 2.25C17.382 2.256 21.744 6.618 21.75 12ZM20.25 12C20.25 7.444 16.556 3.75 12 3.75C7.444 3.75 3.75 7.444 3.75 12C3.75 16.556 7.444 20.25 12 20.25C16.554 20.245 20.245 16.554 20.25 12Z" fill="black"/>
</g>
</mask>
<g mask="url(#mask0_9_751)">
<rect width="24" height="24" fill="#023C12"/>
</g>
<defs>
<clipPath id="clip0_9_751">
<rect width="24" height="24" fill="white"/>
</clipPath>
</defs>
</svg>
