<svg width="12" height="12" viewBox="0 0 12 12" fill="none" xmlns="http://www.w3.org/2000/svg">
<path fill-rule="evenodd" clip-rule="evenodd" d="M7.76549 4.60919C7.80041 4.64403 7.82811 4.68541 7.84702 4.73097C7.86592 4.77653 7.87566 4.82537 7.87566 4.87469C7.87566 4.92402 7.86592 4.97286 7.84702 5.01842C7.82811 5.06398 7.80041 5.10536 7.76549 5.14019L5.51549 7.39019C5.48065 7.42512 5.43927 7.45282 5.39371 7.47173C5.34815 7.49063 5.29931 7.50036 5.24999 7.50036C5.20066 7.50036 5.15182 7.49063 5.10626 7.47173C5.0607 7.45282 5.01932 7.42512 4.98449 7.39019L3.85949 6.26519C3.82462 6.23033 3.79696 6.18894 3.77809 6.14338C3.75922 6.09783 3.74951 6.049 3.74951 5.99969C3.74951 5.95039 3.75922 5.90156 3.77809 5.85601C3.79696 5.81045 3.82462 5.76906 3.85949 5.73419C3.89435 5.69933 3.93574 5.67167 3.9813 5.6528C4.02685 5.63393 4.07568 5.62422 4.12499 5.62422C4.17429 5.62422 4.22312 5.63393 4.26867 5.6528C4.31423 5.67167 4.35562 5.69933 4.39049 5.73419L5.24999 6.59444L7.23449 4.60919C7.26932 4.57427 7.3107 4.54656 7.35626 4.52766C7.40182 4.50875 7.45066 4.49902 7.49999 4.49902C7.54931 4.49902 7.59815 4.50875 7.64371 4.52766C7.68927 4.54656 7.73065 4.57427 7.76549 4.60919Z" fill="#02110C"/>
<path d="M7.70512 1.88512L7.01437 1.17712L7.55062 0.653623L8.01712 1.13137L8.68462 1.12312C8.97356 1.1197 9.26027 1.17409 9.52788 1.28309C9.79549 1.39209 10.0386 1.55349 10.2429 1.75782C10.4473 1.96214 10.6087 2.20526 10.7177 2.47287C10.8267 2.74048 10.881 3.02719 10.8776 3.31612L10.8701 3.98362L11.3471 4.45012C11.5537 4.652 11.7179 4.89314 11.83 5.15936C11.942 5.42558 11.9998 5.71152 11.9998 6.00037C11.9998 6.28923 11.942 6.57517 11.83 6.84139C11.7179 7.10761 11.5537 7.34875 11.3471 7.55062L10.8694 8.01712L10.8776 8.68462C10.881 8.97356 10.8267 9.26027 10.7177 9.52788C10.6087 9.79549 10.4473 10.0386 10.2429 10.2429C10.0386 10.4473 9.79549 10.6087 9.52788 10.7177C9.26027 10.8267 8.97356 10.881 8.68462 10.8776L8.01712 10.8701L7.55062 11.3471C7.34875 11.5537 7.10761 11.7179 6.84139 11.83C6.57517 11.942 6.28923 11.9998 6.00037 11.9998C5.71152 11.9998 5.42558 11.942 5.15936 11.83C4.89314 11.7179 4.652 11.5537 4.45012 11.3471L3.98362 10.8694L3.31612 10.8776C3.02719 10.881 2.74048 10.8267 2.47287 10.7177C2.20526 10.6087 1.96214 10.4473 1.75782 10.2429C1.55349 10.0386 1.39209 9.79549 1.28309 9.52788C1.17409 9.26027 1.1197 8.97356 1.12312 8.68462L1.13062 8.01712L0.653623 7.55062C0.447028 7.34875 0.282868 7.10761 0.17079 6.84139C0.0587121 6.57517 0.000976562 6.28923 0.000976562 6.00037C0.000976562 5.71152 0.0587121 5.42558 0.17079 5.15936C0.282868 4.89314 0.447028 4.652 0.653623 4.45012L1.13137 3.98362L1.12312 3.31612C1.1197 3.02719 1.17409 2.74048 1.28309 2.47287C1.39209 2.20526 1.55349 1.96214 1.75782 1.75782C1.96214 1.55349 2.20526 1.39209 2.47287 1.28309C2.74048 1.17409 3.02719 1.1197 3.31612 1.12312L3.98362 1.13062L4.45012 0.653623C4.652 0.447028 4.89314 0.282868 5.15936 0.17079C5.42558 0.0587121 5.71152 0.000976562 6.00037 0.000976562C6.28923 0.000976562 6.57517 0.0587121 6.84139 0.17079C7.10761 0.282868 7.34875 0.447028 7.55062 0.653623L7.01437 1.17712C6.88234 1.04196 6.72463 0.934562 6.55049 0.861235C6.37636 0.787907 6.18932 0.750133 6.00037 0.750133C5.81143 0.750133 5.62439 0.787907 5.45026 0.861235C5.27612 0.934562 5.1184 1.04196 4.98637 1.17712L4.29637 1.88512L3.30637 1.87312C3.11751 1.87101 2.93012 1.90667 2.75523 1.97799C2.58034 2.04932 2.42146 2.15488 2.28794 2.28847C2.15442 2.42206 2.04894 2.58099 1.97771 2.75592C1.90647 2.93085 1.87091 3.11826 1.87312 3.30712L1.88512 4.29562L1.17712 4.98637C1.04196 5.1184 0.934562 5.27612 0.861235 5.45026C0.787907 5.62439 0.750133 5.81143 0.750133 6.00037C0.750133 6.18932 0.787907 6.37636 0.861235 6.55049C0.934562 6.72463 1.04196 6.88234 1.17712 7.01437L1.88512 7.70437L1.87312 8.69437C1.87101 8.88324 1.90667 9.07062 1.97799 9.24552C2.04932 9.42041 2.15488 9.57928 2.28847 9.71281C2.42206 9.84633 2.58099 9.95181 2.75592 10.023C2.93085 10.0943 3.11826 10.1298 3.30712 10.1276L4.29562 10.1156L4.98637 10.8236C5.1184 10.9588 5.27612 11.0662 5.45026 11.1395C5.62439 11.2128 5.81143 11.2506 6.00037 11.2506C6.18932 11.2506 6.37636 11.2128 6.55049 11.1395C6.72463 11.0662 6.88234 10.9588 7.01437 10.8236L7.70437 10.1156L8.69437 10.1276C8.88324 10.1297 9.07062 10.0941 9.24552 10.0228C9.42041 9.95143 9.57928 9.84587 9.71281 9.71227C9.84633 9.57868 9.95181 9.41975 10.023 9.24482C10.0943 9.06989 10.1298 8.88249 10.1276 8.69362L10.1156 7.70512L10.8236 7.01437C10.9588 6.88234 11.0662 6.72463 11.1395 6.55049C11.2128 6.37636 11.2506 6.18932 11.2506 6.00037C11.2506 5.81143 11.2128 5.62439 11.1395 5.45026C11.0662 5.27612 10.9588 5.1184 10.8236 4.98637L10.1156 4.29637L10.1276 3.30637C10.1297 3.11751 10.0941 2.93012 10.0228 2.75523C9.95143 2.58034 9.84587 2.42146 9.71227 2.28794C9.57868 2.15442 9.41975 2.04894 9.24482 1.97771C9.06989 1.90647 8.88249 1.87091 8.69362 1.87312L7.70512 1.88512Z" fill="#02110C"/>
</svg>
