<svg width="94" height="65" viewBox="0 0 94 65" fill="none" xmlns="http://www.w3.org/2000/svg">
<g clip-path="url(#clip0_9_198)">
<g clip-path="url(#clip1_9_198)">
<g clip-path="url(#clip2_9_198)">
<path d="M94 15.549C94 32.033 90.924 44.183 84.772 52C77.882 60.667 66.645 65 51.06 65V44.608C61.395 44.608 67.465 39.085 69.27 28.039C69.926 24.471 70.254 20.307 70.254 15.549V0H94V15.549ZM42.94 15.549C42.94 32.033 39.864 44.183 33.712 52C26.822 60.667 15.585 65 0 65V44.608C10.335 44.608 16.405 39.085 18.21 28.039C18.866 24.471 19.194 20.307 19.194 15.549V0H42.94V15.549Z" fill="#15302B"/>
</g>
</g>
</g>
<defs>
<clipPath id="clip0_9_198">
<rect width="94" height="65" fill="white" transform="matrix(-1 0 0 -1 94 65)"/>
</clipPath>
<clipPath id="clip1_9_198">
<rect width="94" height="65" fill="white" transform="matrix(-1 0 0 -1 94 65)"/>
</clipPath>
<clipPath id="clip2_9_198">
<rect width="94" height="65" fill="white" transform="matrix(-1 0 0 -1 94 65)"/>
</clipPath>
</defs>
</svg>
