<svg width="94" height="65" viewBox="0 0 94 65" fill="none" xmlns="http://www.w3.org/2000/svg">
<g clip-path="url(#clip0_9_194)">
<g clip-path="url(#clip1_9_194)">
<g clip-path="url(#clip2_9_194)">
<path d="M0 49.451C0 32.967 3.076 20.817 9.228 13C16.118 4.333 27.355 0 42.94 0V20.392C32.605 20.392 26.535 25.915 24.73 36.961C24.074 40.529 23.746 44.693 23.746 49.451V65H0V49.451ZM51.06 49.451C51.06 32.967 54.136 20.817 60.288 13C67.178 4.333 78.415 0 94 0V20.392C83.665 20.392 77.595 25.915 75.79 36.961C75.134 40.529 74.806 44.693 74.806 49.451V65H51.06V49.451Z" fill="#15302B"/>
</g>
</g>
</g>
<defs>
<clipPath id="clip0_9_194">
<rect width="94" height="65" fill="white"/>
</clipPath>
<clipPath id="clip1_9_194">
<rect width="94" height="65" fill="white"/>
</clipPath>
<clipPath id="clip2_9_194">
<rect width="94" height="65" fill="white"/>
</clipPath>
</defs>
</svg>
