<svg width="80" height="16" viewBox="0 0 80 16" fill="none" xmlns="http://www.w3.org/2000/svg">
<g clip-path="url(#clip0_9_57)">
<path fill-rule="evenodd" clip-rule="evenodd" d="M11.7078 13.97C11.6002 13.9704 11.4942 13.9447 11.3988 13.895L7.99878 12.119L4.59978 13.895C4.48962 13.9531 4.36535 13.9792 4.24113 13.9701C4.1169 13.9611 3.99771 13.9173 3.89714 13.8438C3.79657 13.7704 3.71865 13.6701 3.67226 13.5545C3.62588 13.4389 3.61289 13.3126 3.63478 13.19L4.28278 9.438L1.53578 6.781C1.44584 6.69458 1.38202 6.5846 1.35161 6.46363C1.3212 6.34266 1.32542 6.21557 1.3638 6.09689C1.40218 5.97821 1.47317 5.87271 1.56865 5.79245C1.66413 5.71219 1.78026 5.6604 1.90378 5.643L5.70378 5.091L7.40178 1.673C7.62778 1.22 8.37178 1.22 8.59678 1.673L10.2948 5.091L14.0948 5.643C14.2183 5.6604 14.3344 5.71219 14.4299 5.79245C14.5254 5.87271 14.5964 5.97821 14.6348 6.09689C14.6731 6.21557 14.6774 6.34266 14.6469 6.46363C14.6165 6.5846 14.5527 6.69458 14.4628 6.781L11.7158 9.438L12.3638 13.19C12.3802 13.2856 12.3756 13.3837 12.3502 13.4774C12.3249 13.571 12.2793 13.6581 12.2169 13.7323C12.1544 13.8066 12.0765 13.8663 11.9886 13.9074C11.9007 13.9484 11.8048 13.9698 11.7078 13.97Z" fill="#FFCA32"/>
<path fill-rule="evenodd" clip-rule="evenodd" d="M27.7078 13.97C27.6002 13.9704 27.4942 13.9447 27.3988 13.895L23.9988 12.119L20.5998 13.895C20.4896 13.9531 20.3654 13.9792 20.2411 13.9701C20.1169 13.9611 19.9977 13.9173 19.8971 13.8438C19.7966 13.7704 19.7186 13.6701 19.6723 13.5545C19.6259 13.4389 19.6129 13.3126 19.6348 13.19L20.2828 9.438L17.5358 6.781C17.4458 6.69458 17.382 6.5846 17.3516 6.46363C17.3212 6.34266 17.3254 6.21557 17.3638 6.09689C17.4022 5.97821 17.4732 5.87271 17.5687 5.79245C17.6641 5.71219 17.7803 5.6604 17.9038 5.643L21.7038 5.091L23.4018 1.673C23.6278 1.22 24.3718 1.22 24.5968 1.673L26.2948 5.091L30.0948 5.643C30.2183 5.6604 30.3344 5.71219 30.4299 5.79245C30.5254 5.87271 30.5964 5.97821 30.6348 6.09689C30.6731 6.21557 30.6774 6.34266 30.6469 6.46363C30.6165 6.5846 30.5527 6.69458 30.4628 6.781L27.7158 9.438L28.3638 13.19C28.3802 13.2856 28.3756 13.3837 28.3502 13.4774C28.3249 13.571 28.2793 13.6581 28.2169 13.7323C28.1544 13.8066 28.0765 13.8663 27.9886 13.9074C27.9007 13.9484 27.8048 13.9698 27.7078 13.97Z" fill="#FFCA32"/>
<path fill-rule="evenodd" clip-rule="evenodd" d="M43.7078 13.97C43.6002 13.9704 43.4942 13.9447 43.3988 13.895L39.9988 12.119L36.5998 13.895C36.4896 13.9531 36.3654 13.9792 36.2411 13.9701C36.1169 13.9611 35.9977 13.9173 35.8971 13.8438C35.7966 13.7704 35.7186 13.6701 35.6723 13.5545C35.6259 13.4389 35.6129 13.3126 35.6348 13.19L36.2828 9.438L33.5358 6.781C33.4458 6.69458 33.382 6.5846 33.3516 6.46363C33.3212 6.34266 33.3254 6.21557 33.3638 6.09689C33.4022 5.97821 33.4732 5.87271 33.5687 5.79245C33.6641 5.71219 33.7803 5.6604 33.9038 5.643L37.7038 5.091L39.4018 1.673C39.6278 1.22 40.3718 1.22 40.5968 1.673L42.2948 5.091L46.0948 5.643C46.2183 5.6604 46.3344 5.71219 46.4299 5.79245C46.5254 5.87271 46.5964 5.97821 46.6348 6.09689C46.6731 6.21557 46.6774 6.34266 46.6469 6.46363C46.6165 6.5846 46.5527 6.69458 46.4628 6.781L43.7158 9.438L44.3638 13.19C44.3802 13.2856 44.3756 13.3837 44.3502 13.4774C44.3249 13.571 44.2793 13.6581 44.2169 13.7323C44.1544 13.8066 44.0765 13.8663 43.9886 13.9074C43.9007 13.9484 43.8048 13.9698 43.7078 13.97Z" fill="#FFCA32"/>
<path fill-rule="evenodd" clip-rule="evenodd" d="M59.7078 13.97C59.6002 13.9704 59.4942 13.9447 59.3988 13.895L55.9988 12.119L52.5998 13.895C52.4896 13.9531 52.3654 13.9792 52.2411 13.9701C52.1169 13.9611 51.9977 13.9173 51.8971 13.8438C51.7966 13.7704 51.7186 13.6701 51.6723 13.5545C51.6259 13.4389 51.6129 13.3126 51.6348 13.19L52.2828 9.438L49.5358 6.781C49.4458 6.69458 49.382 6.5846 49.3516 6.46363C49.3212 6.34266 49.3254 6.21557 49.3638 6.09689C49.4022 5.97821 49.4732 5.87271 49.5687 5.79245C49.6641 5.71219 49.7803 5.6604 49.9038 5.643L53.7038 5.091L55.4018 1.673C55.6278 1.22 56.3718 1.22 56.5968 1.673L58.2948 5.091L62.0948 5.643C62.2183 5.6604 62.3344 5.71219 62.4299 5.79245C62.5254 5.87271 62.5964 5.97821 62.6348 6.09689C62.6731 6.21557 62.6774 6.34266 62.6469 6.46363C62.6165 6.5846 62.5527 6.69458 62.4628 6.781L59.7158 9.438L60.3638 13.19C60.3802 13.2856 60.3756 13.3837 60.3502 13.4774C60.3249 13.571 60.2793 13.6581 60.2169 13.7323C60.1544 13.8066 60.0765 13.8663 59.9886 13.9074C59.9007 13.9484 59.8048 13.9698 59.7078 13.97Z" fill="#FFCA32"/>
<path fill-rule="evenodd" clip-rule="evenodd" d="M72.3078 10.775L74.8208 12.089L74.3428 9.317C74.3243 9.21007 74.3322 9.10023 74.3658 8.99706C74.3995 8.89388 74.4578 8.80049 74.5358 8.725L76.5598 6.767L73.7578 6.359C73.5418 6.328 71.9998 3.467 71.9998 3.467C71.9998 3.467 71.8938 10.7 71.9998 10.7C72.1058 10.7 72.2118 10.725 72.3078 10.775ZM75.7078 13.97C75.6002 13.9704 75.4942 13.9447 75.3988 13.895L71.9988 12.119L68.5998 13.895C68.4896 13.9531 68.3654 13.9792 68.2411 13.9701C68.1169 13.9611 67.9977 13.9173 67.8971 13.8438C67.7966 13.7704 67.7186 13.6701 67.6723 13.5545C67.6259 13.4389 67.6129 13.3126 67.6348 13.19L68.2828 9.438L65.5358 6.781C65.4458 6.69458 65.382 6.5846 65.3516 6.46363C65.3212 6.34266 65.3254 6.21557 65.3638 6.09689C65.4022 5.97821 65.4732 5.87271 65.5687 5.79245C65.6641 5.71219 65.7803 5.6604 65.9038 5.643L69.7038 5.091L71.4018 1.673C71.6278 1.22 72.3718 1.22 72.5968 1.673L74.2948 5.091L78.0948 5.643C78.2183 5.6604 78.3344 5.71219 78.4299 5.79245C78.5254 5.87271 78.5964 5.97821 78.6348 6.09689C78.6731 6.21557 78.6774 6.34266 78.6469 6.46363C78.6165 6.5846 78.5527 6.69458 78.4628 6.781L75.7158 9.438L76.3638 13.19C76.3802 13.2856 76.3756 13.3837 76.3502 13.4774C76.3249 13.571 76.2793 13.6581 76.2169 13.7323C76.1544 13.8066 76.0765 13.8663 75.9886 13.9074C75.9007 13.9484 75.8048 13.9698 75.7078 13.97Z" fill="#FFCA32"/>
</g>
<defs>
<clipPath id="clip0_9_57">
<rect width="80" height="16" fill="white"/>
</clipPath>
</defs>
</svg>
