<svg width="960" height="29" viewBox="0 0 960 29" fill="none" xmlns="http://www.w3.org/2000/svg">
<g clip-path="url(#clip0_9_179)">
<g clip-path="url(#clip1_9_179)">
<path d="M536.255 3.53729C535.895 2.42409 534.319 2.42409 533.957 3.53729L532.122 9.18486C531.96 9.68245 531.496 10.0188 530.973 10.0188H525.035C523.864 10.0188 523.378 11.5174 524.324 12.2058L529.129 15.6958C529.552 16.0036 529.729 16.5494 529.567 17.047L527.732 22.6946C527.371 23.8088 528.645 24.7351 529.591 24.0458L534.396 20.5557C534.82 20.2479 535.393 20.2479 535.817 20.5557L540.622 24.0458C541.568 24.7351 542.843 23.8078 542.48 22.6946L540.646 17.047C540.484 16.5494 540.661 16.0036 541.085 15.6958L545.889 12.2058C546.836 11.5174 546.35 10.0188 545.179 10.0188H539.24C538.717 10.0188 538.254 9.68245 538.091 9.18486L536.255 3.53729ZM507.254 3.53729C506.892 2.42409 505.317 2.42409 504.956 3.53729L503.12 9.18486C502.959 9.68245 502.496 10.0198 501.973 10.0198H496.033C494.862 10.0198 494.376 11.5184 495.322 12.2068L500.127 15.6968C500.551 16.0046 500.728 16.5504 500.565 17.048L498.731 22.6946C498.369 23.8088 499.644 24.7351 500.59 24.0458L505.395 20.5557C505.818 20.2479 506.392 20.2479 506.816 20.5557L511.619 24.0458C512.567 24.7351 513.841 23.8088 513.48 22.6946L511.643 17.048C511.482 16.5504 511.659 16.0046 512.083 15.6968L516.888 12.2058C517.835 11.5174 517.347 10.0198 516.177 10.0198H510.239C509.716 10.0198 509.252 9.68344 509.089 9.18584L507.253 3.5363L507.254 3.53729ZM478.252 3.53729C477.891 2.42409 476.315 2.42409 475.954 3.53729L474.118 9.18486C473.957 9.68245 473.494 10.0198 472.971 10.0198H467.031C465.861 10.0198 465.375 11.5184 466.321 12.2068L471.126 15.6968C471.549 16.0046 471.726 16.5504 471.564 17.048L469.729 22.6946C469.368 23.8088 470.642 24.7351 471.588 24.0458L476.393 20.5557C476.817 20.2479 477.39 20.2479 477.814 20.5557L482.618 24.0458C483.565 24.7351 484.84 23.8088 484.478 22.6946L482.641 17.048C482.48 16.5504 482.658 16.0046 483.082 15.6968L487.886 12.2058C488.834 11.5174 488.345 10.0198 487.176 10.0198H481.237C480.714 10.0198 480.251 9.68344 480.088 9.18584L478.251 3.5363L478.252 3.53729ZM449.251 3.53729C448.889 2.42409 447.314 2.42409 446.953 3.53729L445.117 9.18486C444.956 9.68245 444.492 10.0198 443.97 10.0198H438.03C436.859 10.0198 436.372 11.5184 437.319 12.2068L442.124 15.6968C442.548 16.0046 442.725 16.5504 442.562 17.048L440.728 22.6946C440.366 23.8088 441.641 24.7351 442.587 24.0458L447.392 20.5557C447.815 20.2479 448.389 20.2479 448.813 20.5557L453.616 24.0458C454.564 24.7351 455.838 23.8088 455.477 22.6946L453.64 17.048C453.478 16.5504 453.656 16.0046 454.08 15.6968L458.885 12.2058C459.831 11.5174 459.344 10.0198 458.174 10.0198H452.236C451.713 10.0198 451.249 9.68344 451.086 9.18584L449.25 3.5363L449.251 3.53729ZM420.25 3.53729C419.888 2.42409 418.312 2.42409 417.951 3.53729L416.115 9.18486C415.954 9.68245 415.491 10.0198 414.968 10.0198H409.027C407.856 10.0198 407.371 11.5184 408.317 12.2068L413.121 15.6968C413.545 16.0046 413.722 16.5504 413.56 17.048L411.727 22.6936C411.365 23.8078 412.639 24.7332 413.585 24.0448L418.39 20.5548C418.814 20.247 419.387 20.247 419.811 20.5548L424.616 24.0448C425.562 24.7332 426.836 23.8078 426.474 22.6936L424.639 17.047C424.478 16.5494 424.655 16.0036 425.079 15.6958L429.883 12.2048C430.831 11.5165 430.342 10.0188 429.173 10.0188H423.234C422.711 10.0188 422.248 9.68245 422.085 9.18486L420.249 3.5363L420.25 3.53729Z" fill="#F2C261"/>
</g>
</g>
<defs>
<clipPath id="clip0_9_179">
<rect width="145" height="29" fill="white" transform="translate(407.5)"/>
</clipPath>
<clipPath id="clip1_9_179">
<rect width="142.591" height="29" fill="white" transform="translate(407.5)"/>
</clipPath>
</defs>
</svg>
