<svg width="71" height="71" viewBox="0 0 71 71" fill="none" xmlns="http://www.w3.org/2000/svg">
<g filter="url(#filter0_d_9_372)">
<g clip-path="url(#clip0_9_372)">
<rect x="16" y="15.2002" width="39" height="39" rx="3.44" fill="#F5EDDC"/>
<rect x="16.5" y="15.7002" width="38" height="38" rx="2.94" stroke="white"/>
<g clip-path="url(#clip1_9_372)">
<mask id="mask0_9_372" style="mask-type:luminance" maskUnits="userSpaceOnUse" x="-5" y="-6" width="82" height="80">
<path d="M76.6589 -5.67871H-4.86621V73.8363H76.6589V-5.67871Z" fill="white"/>
<path d="M35.671 20.7002L28.4268 21.7974L21.1826 29.0416L35.671 47.7002L50.8173 29.9202L44.4517 21.7974L35.671 20.7002Z" fill="black"/>
</mask>
<g mask="url(#mask0_9_372)">
<path d="M35.671 20.7002L28.4268 21.7974L21.1826 29.0416L35.671 47.7002L50.8173 29.9202L44.4517 21.7974L35.671 20.7002Z" fill="black" stroke="black" stroke-width="0.441291"/>
</g>
<path d="M35.671 20.7002L28.4268 21.7974L21.1826 29.0416L35.671 47.7002L50.8173 29.9202L44.4517 21.7974L35.671 20.7002Z" fill="white" stroke="white" stroke-width="0.441291"/>
</g>
<g clip-path="url(#clip2_9_372)">
<g clip-path="url(#clip3_9_372)">
<path d="M50 30.5554L44.0234 32.5479H27.4196L21 29.8908L27.8626 22.5852L35.1682 21.7002L43.8019 22.5852L50 30.5554Z" fill="white" fill-opacity="0.76"/>
</g>
</g>
</g>
</g>
<defs>
<filter id="filter0_d_9_372" x="0" y="0.000195324" width="71" height="71" filterUnits="userSpaceOnUse" color-interpolation-filters="sRGB">
<feFlood flood-opacity="0" result="BackgroundImageFix"/>
<feColorMatrix in="SourceAlpha" type="matrix" values="0 0 0 0 0 0 0 0 0 0 0 0 0 0 0 0 0 0 127 0" result="hardAlpha"/>
<feOffset dy="0.8"/>
<feGaussianBlur stdDeviation="8"/>
<feComposite in2="hardAlpha" operator="out"/>
<feColorMatrix type="matrix" values="0 0 0 0 0.94902 0 0 0 0 0.760784 0 0 0 0 0.380392 0 0 0 0.54 0"/>
<feBlend mode="normal" in2="BackgroundImageFix" result="effect1_dropShadow_9_372"/>
<feBlend mode="normal" in="SourceGraphic" in2="effect1_dropShadow_9_372" result="shape"/>
</filter>
<clipPath id="clip0_9_372">
<rect x="16" y="15.2002" width="39" height="39" rx="3.44" fill="white"/>
</clipPath>
<clipPath id="clip1_9_372">
<rect width="30" height="27" fill="white" transform="translate(21 20.7002)"/>
</clipPath>
<clipPath id="clip2_9_372">
<rect width="29" height="11" fill="white" transform="translate(21 21.7002)"/>
</clipPath>
<clipPath id="clip3_9_372">
<rect width="29" height="10.8477" fill="white" transform="translate(21 21.7002)"/>
</clipPath>
</defs>
</svg>
