<svg width="71" height="71" viewBox="0 0 71 71" fill="none" xmlns="http://www.w3.org/2000/svg">
<g filter="url(#filter0_d_9_506)">
<g clip-path="url(#clip0_9_506)">
<rect x="16" y="15.2002" width="39" height="39" rx="3.44" fill="#F5EDDC"/>
<g clip-path="url(#clip1_9_506)">
<mask id="mask0_9_506" style="mask-type:luminance" maskUnits="userSpaceOnUse" x="-6" y="-10" width="82" height="87">
<path d="M75.5412 -9.05518H-5.13477V76.8571H75.5412V-9.05518Z" fill="white"/>
<path d="M35.4995 19.2329L22 40.9505L35.4995 49.1675L49 40.9505L35.4995 19.2329Z" fill="black"/>
</mask>
<g mask="url(#mask0_9_506)">
<path d="M35.4995 19.2329L22 40.9505L35.4995 49.1675L49 40.9505L35.4995 19.2329Z" fill="black" stroke="black" stroke-width="1.16745"/>
</g>
<path d="M35.4995 19.2329L22 40.9505L35.4995 49.1675L49 40.9505L35.4995 19.2329Z" fill="#FDFCFF" stroke="white" stroke-width="1.16745"/>
</g>
<rect x="16.5" y="15.7002" width="38" height="38" rx="2.94" stroke="white"/>
</g>
</g>
<defs>
<filter id="filter0_d_9_506" x="0" y="0.000195324" width="71" height="71" filterUnits="userSpaceOnUse" color-interpolation-filters="sRGB">
<feFlood flood-opacity="0" result="BackgroundImageFix"/>
<feColorMatrix in="SourceAlpha" type="matrix" values="0 0 0 0 0 0 0 0 0 0 0 0 0 0 0 0 0 0 127 0" result="hardAlpha"/>
<feOffset dy="0.8"/>
<feGaussianBlur stdDeviation="8"/>
<feComposite in2="hardAlpha" operator="out"/>
<feColorMatrix type="matrix" values="0 0 0 0 0.94902 0 0 0 0 0.760784 0 0 0 0 0.380392 0 0 0 0.54 0"/>
<feBlend mode="normal" in2="BackgroundImageFix" result="effect1_dropShadow_9_506"/>
<feBlend mode="normal" in="SourceGraphic" in2="effect1_dropShadow_9_506" result="shape"/>
</filter>
<clipPath id="clip0_9_506">
<rect x="16" y="15.2002" width="39" height="39" rx="3.44" fill="white"/>
</clipPath>
<clipPath id="clip1_9_506">
<rect width="27" height="30" fill="white" transform="translate(22 19.2002)"/>
</clipPath>
</defs>
</svg>
