<svg width="18" height="18" viewBox="0 0 18 18" fill="none" xmlns="http://www.w3.org/2000/svg">
<path d="M2.41447 3.21048C2.36217 3.15819 2.32069 3.0961 2.29238 3.02777C2.26408 2.95943 2.24951 2.8862 2.24951 2.81223C2.24951 2.73827 2.26408 2.66503 2.29238 2.5967C2.32069 2.52837 2.36217 2.46628 2.41447 2.41398C2.46677 2.36168 2.52886 2.3202 2.59719 2.2919C2.66552 2.26359 2.73876 2.24902 2.81272 2.24902C2.88668 2.24902 2.95992 2.26359 3.02825 2.2919C3.09659 2.3202 3.15867 2.36168 3.21097 2.41398L9.00022 8.20436L14.7895 2.41398C14.8418 2.36168 14.9039 2.3202 14.9722 2.2919C15.0405 2.26359 15.1138 2.24902 15.1877 2.24902C15.2617 2.24902 15.3349 2.26359 15.4033 2.2919C15.4716 2.3202 15.5337 2.36168 15.586 2.41398C15.6383 2.46628 15.6798 2.52837 15.7081 2.5967C15.7364 2.66503 15.7509 2.73827 15.7509 2.81223C15.7509 2.8862 15.7364 2.95943 15.7081 3.02777C15.6798 3.0961 15.6383 3.15819 15.586 3.21048L9.7956 8.99973L15.586 14.789C15.6383 14.8413 15.6798 14.9034 15.7081 14.9717C15.7364 15.04 15.7509 15.1133 15.7509 15.1872C15.7509 15.2612 15.7364 15.3344 15.7081 15.4028C15.6798 15.4711 15.6383 15.5332 15.586 15.5855C15.5337 15.6378 15.4716 15.6793 15.4033 15.7076C15.3349 15.7359 15.2617 15.7504 15.1877 15.7504C15.1138 15.7504 15.0405 15.7359 14.9722 15.7076C14.9039 15.6793 14.8418 15.6378 14.7895 15.5855L9.00022 9.79511L3.21097 15.5855C3.15867 15.6378 3.09659 15.6793 3.02825 15.7076C2.95992 15.7359 2.88668 15.7504 2.81272 15.7504C2.73876 15.7504 2.66552 15.7359 2.59719 15.7076C2.52886 15.6793 2.46677 15.6378 2.41447 15.5855C2.36217 15.5332 2.32069 15.4711 2.29238 15.4028C2.26408 15.3344 2.24951 15.2612 2.24951 15.1872C2.24951 15.1133 2.26408 15.04 2.29238 14.9717C2.32069 14.9034 2.36217 14.8413 2.41447 14.789L8.20485 8.99973L2.41447 3.21048Z" fill="#02110C"/>
</svg>
