<svg width="186" height="121" viewBox="0 0 186 121" fill="none" xmlns="http://www.w3.org/2000/svg">
<g filter="url(#filter0_d_102_3)">
<rect width="144" height="96" rx="8" transform="matrix(1 0 0 -1 21 108)" fill="url(#paint0_linear_102_3)"/>
<rect x="-0.5" y="0.5" width="145" height="97" rx="8.5" transform="matrix(1 0 0 -1 21 109)" stroke="url(#paint1_linear_102_3)"/>
</g>
<mask id="mask0_102_3" style="mask-type:alpha" maskUnits="userSpaceOnUse" x="21" y="12" width="144" height="96">
<rect x="21" y="12" width="144" height="96" rx="8" fill="white"/>
</mask>
<g mask="url(#mask0_102_3)">
<g opacity="0.4">
<g filter="url(#filter1_f_102_3)">
<path d="M24 108L162 108L101.555 53.6872C98.5309 50.9698 97.0187 49.611 95.3091 49.0956C93.8032 48.6416 92.1968 48.6416 90.6909 49.0956C88.9813 49.611 87.4691 50.9698 84.4449 53.6872L24 108Z" fill="#473355" fill-opacity="0.4"/>
</g>
<g filter="url(#filter2_f_102_3)">
<path d="M32 108L154 108L102.528 50.6215C99.2296 46.9444 97.5803 45.1059 95.6365 44.4274C93.9294 43.8315 92.0706 43.8315 90.3635 44.4274C88.4197 45.1059 86.7704 46.9444 83.4719 50.6215L32 108Z" fill="#553353" fill-opacity="0.2"/>
</g>
<g filter="url(#filter3_f_102_3)">
<path d="M24 108L162 108L102.362 44.0401C99.1076 40.5502 97.4806 38.8053 95.5783 38.1576C93.9065 37.5885 92.0935 37.5885 90.4217 38.1576C88.5194 38.8053 86.8924 40.5502 83.6383 44.0401L24 108Z" fill="#523355" fill-opacity="0.1"/>
</g>
</g>
<g filter="url(#filter4_i_102_3)">
<path d="M21 108L165 108L101.352 53.1923C98.389 50.6405 96.9073 49.3647 95.2444 48.8786C93.7788 48.4502 92.2212 48.4502 90.7556 48.8786C89.0927 49.3647 87.611 50.6405 84.6477 53.1923L21 108Z" fill="url(#paint2_linear_102_3)"/>
</g>
<path d="M22.5 106L84.6546 52.6617C87.616 50.1203 89.0967 48.8496 90.7575 48.3661C92.2211 47.9399 93.7761 47.9408 95.2393 48.3686C96.8994 48.8541 98.3787 50.1264 101.337 52.6712L164.5 107" stroke="#FF00DD" stroke-opacity="0.06"/>
<g style="mix-blend-mode:multiply" opacity="0.7">
<g filter="url(#filter5_f_102_3)">
<path d="M24 12L162 12L101.555 66.3128C98.5309 69.0302 97.0187 70.389 95.3091 70.9044C93.8032 71.3584 92.1968 71.3584 90.6909 70.9044C88.9813 70.389 87.4691 69.0302 84.4449 66.3128L24 12Z" fill="#55334E" fill-opacity="0.4"/>
</g>
<g filter="url(#filter6_f_102_3)">
<path d="M32 12L154 12L102.528 69.3785C99.2296 73.0556 97.5803 74.8941 95.6365 75.5726C93.9294 76.1685 92.0706 76.1685 90.3635 75.5726C88.4197 74.8941 86.7704 73.0556 83.4719 69.3785L32 12Z" fill="#55334D" fill-opacity="0.2"/>
</g>
<g filter="url(#filter7_f_102_3)">
<path d="M24 12L162 12L102.362 75.9599C99.1076 79.4498 97.4806 81.1947 95.5783 81.8424C93.9065 82.4115 92.0935 82.4115 90.4217 81.8424C88.5194 81.1947 86.8924 79.4498 83.6383 75.9599L24 12Z" fill="#4D3355" fill-opacity="0.1"/>
</g>
<g filter="url(#filter8_f_102_3)">
<path d="M29 12L157 12L97.4282 77.1567C95.0493 79.7585 90.9507 79.7585 88.5718 77.1567L29 12Z" fill="#C82FD9" fill-opacity="0.05"/>
</g>
<g filter="url(#filter9_f_102_3)">
<path d="M23 11L163 11L97.0827 72.2089C94.7806 74.3466 91.2194 74.3466 88.9173 72.2089L23 11Z" fill="#4D3355" fill-opacity="0.1"/>
</g>
</g>
<path d="M22.5 14L84.6546 67.3383C87.616 69.8797 89.0967 71.1504 90.7575 71.6339C92.2211 72.0601 93.7761 72.0592 95.2393 71.6314C96.8994 71.1459 98.3787 69.8736 101.337 67.3288L164.5 13" stroke="#FF00DD" stroke-opacity="0.06"/>
<g filter="url(#filter10_i_102_3)">
<path d="M21 12L165 12L101.352 66.8077C98.389 69.3595 96.9073 70.6354 95.2444 71.1214C93.7788 71.5498 92.2212 71.5498 90.7556 71.1214C89.0927 70.6354 87.611 69.3595 84.6477 66.8077L21 12Z" fill="url(#paint3_linear_102_3)"/>
</g>
<g filter="url(#filter11_f_102_3)">
<rect x="21" y="12" width="144" height="96" stroke="url(#paint4_linear_102_3)" stroke-width="16"/>
</g>
<rect x="21.5" y="12.5" width="143" height="95" rx="7.5" stroke="white" stroke-opacity="0.4"/>
</g>
<defs>
<filter id="filter0_d_102_3" x="16" y="9" width="154" height="106" filterUnits="userSpaceOnUse" color-interpolation-filters="sRGB">
<feFlood flood-opacity="0" result="BackgroundImageFix"/>
<feColorMatrix in="SourceAlpha" type="matrix" values="0 0 0 0 0 0 0 0 0 0 0 0 0 0 0 0 0 0 127 0" result="hardAlpha"/>
<feOffset dy="2"/>
<feGaussianBlur stdDeviation="2"/>
<feColorMatrix type="matrix" values="0 0 0 0 0.317972 0 0 0 0 0.117563 0 0 0 0 0.362962 0 0 0 0.08 0"/>
<feBlend mode="normal" in2="BackgroundImageFix" result="effect1_dropShadow_102_3"/>
<feBlend mode="normal" in="SourceGraphic" in2="effect1_dropShadow_102_3" result="shape"/>
</filter>
<filter id="filter1_f_102_3" x="20" y="44.7551" width="146" height="67.2449" filterUnits="userSpaceOnUse" color-interpolation-filters="sRGB">
<feFlood flood-opacity="0" result="BackgroundImageFix"/>
<feBlend mode="normal" in="SourceGraphic" in2="BackgroundImageFix" result="shape"/>
<feGaussianBlur stdDeviation="2" result="effect1_foregroundBlur_102_3"/>
</filter>
<filter id="filter2_f_102_3" x="20" y="31.9805" width="146" height="88.0195" filterUnits="userSpaceOnUse" color-interpolation-filters="sRGB">
<feFlood flood-opacity="0" result="BackgroundImageFix"/>
<feBlend mode="normal" in="SourceGraphic" in2="BackgroundImageFix" result="shape"/>
<feGaussianBlur stdDeviation="6" result="effect1_foregroundBlur_102_3"/>
</filter>
<filter id="filter3_f_102_3" x="0" y="13.7308" width="186" height="118.269" filterUnits="userSpaceOnUse" color-interpolation-filters="sRGB">
<feFlood flood-opacity="0" result="BackgroundImageFix"/>
<feBlend mode="normal" in="SourceGraphic" in2="BackgroundImageFix" result="shape"/>
<feGaussianBlur stdDeviation="12" result="effect1_foregroundBlur_102_3"/>
</filter>
<filter id="filter4_i_102_3" x="21" y="48.5573" width="144" height="59.4429" filterUnits="userSpaceOnUse" color-interpolation-filters="sRGB">
<feFlood flood-opacity="0" result="BackgroundImageFix"/>
<feBlend mode="normal" in="SourceGraphic" in2="BackgroundImageFix" result="shape"/>
<feColorMatrix in="SourceAlpha" type="matrix" values="0 0 0 0 0 0 0 0 0 0 0 0 0 0 0 0 0 0 127 0" result="hardAlpha"/>
<feOffset dy="1"/>
<feComposite in2="hardAlpha" operator="arithmetic" k2="-1" k3="1"/>
<feColorMatrix type="matrix" values="0 0 0 0 1 0 0 0 0 1 0 0 0 0 1 0 0 0 0.6 0"/>
<feBlend mode="normal" in2="shape" result="effect1_innerShadow_102_3"/>
</filter>
<filter id="filter5_f_102_3" x="20" y="8" width="146" height="67.2449" filterUnits="userSpaceOnUse" color-interpolation-filters="sRGB">
<feFlood flood-opacity="0" result="BackgroundImageFix"/>
<feBlend mode="normal" in="SourceGraphic" in2="BackgroundImageFix" result="shape"/>
<feGaussianBlur stdDeviation="2" result="effect1_foregroundBlur_102_3"/>
</filter>
<filter id="filter6_f_102_3" x="20" y="0" width="146" height="88.0195" filterUnits="userSpaceOnUse" color-interpolation-filters="sRGB">
<feFlood flood-opacity="0" result="BackgroundImageFix"/>
<feBlend mode="normal" in="SourceGraphic" in2="BackgroundImageFix" result="shape"/>
<feGaussianBlur stdDeviation="6" result="effect1_foregroundBlur_102_3"/>
</filter>
<filter id="filter7_f_102_3" x="0" y="-12" width="186" height="118.269" filterUnits="userSpaceOnUse" color-interpolation-filters="sRGB">
<feFlood flood-opacity="0" result="BackgroundImageFix"/>
<feBlend mode="normal" in="SourceGraphic" in2="BackgroundImageFix" result="shape"/>
<feGaussianBlur stdDeviation="12" result="effect1_foregroundBlur_102_3"/>
</filter>
<filter id="filter8_f_102_3" x="19" y="2" width="148" height="87.1081" filterUnits="userSpaceOnUse" color-interpolation-filters="sRGB">
<feFlood flood-opacity="0" result="BackgroundImageFix"/>
<feBlend mode="normal" in="SourceGraphic" in2="BackgroundImageFix" result="shape"/>
<feGaussianBlur stdDeviation="5" result="effect1_foregroundBlur_102_3"/>
</filter>
<filter id="filter9_f_102_3" x="19" y="7" width="148" height="70.8122" filterUnits="userSpaceOnUse" color-interpolation-filters="sRGB">
<feFlood flood-opacity="0" result="BackgroundImageFix"/>
<feBlend mode="normal" in="SourceGraphic" in2="BackgroundImageFix" result="shape"/>
<feGaussianBlur stdDeviation="2" result="effect1_foregroundBlur_102_3"/>
</filter>
<filter id="filter10_i_102_3" x="21" y="12" width="144" height="59.4427" filterUnits="userSpaceOnUse" color-interpolation-filters="sRGB">
<feFlood flood-opacity="0" result="BackgroundImageFix"/>
<feBlend mode="normal" in="SourceGraphic" in2="BackgroundImageFix" result="shape"/>
<feColorMatrix in="SourceAlpha" type="matrix" values="0 0 0 0 0 0 0 0 0 0 0 0 0 0 0 0 0 0 127 0" result="hardAlpha"/>
<feOffset dy="-1"/>
<feComposite in2="hardAlpha" operator="arithmetic" k2="-1" k3="1"/>
<feColorMatrix type="matrix" values="0 0 0 0 1 0 0 0 0 1 0 0 0 0 1 0 0 0 0.5 0"/>
<feBlend mode="normal" in2="shape" result="effect1_innerShadow_102_3"/>
</filter>
<filter id="filter11_f_102_3" x="5" y="-4" width="176" height="128" filterUnits="userSpaceOnUse" color-interpolation-filters="sRGB">
<feFlood flood-opacity="0" result="BackgroundImageFix"/>
<feBlend mode="normal" in="SourceGraphic" in2="BackgroundImageFix" result="shape"/>
<feGaussianBlur stdDeviation="4" result="effect1_foregroundBlur_102_3"/>
</filter>
<linearGradient id="paint0_linear_102_3" x1="72" y1="0" x2="72" y2="96" gradientUnits="userSpaceOnUse">
<stop offset="0.130208" stop-color="white"/>
<stop offset="0.848958" stop-color="#FFF3FD"/>
</linearGradient>
<linearGradient id="paint1_linear_102_3" x1="72" y1="0" x2="72" y2="96" gradientUnits="userSpaceOnUse">
<stop stop-color="#475569" stop-opacity="0.06"/>
<stop offset="1" stop-color="#475569" stop-opacity="0.04"/>
</linearGradient>
<linearGradient id="paint2_linear_102_3" x1="93" y1="46" x2="93" y2="108" gradientUnits="userSpaceOnUse">
<stop offset="0.524194" stop-color="white"/>
<stop offset="1" stop-color="white"/>
</linearGradient>
<linearGradient id="paint3_linear_102_3" x1="93" y1="12" x2="93" y2="74" gradientUnits="userSpaceOnUse">
<stop offset="0.25" stop-color="white"/>
<stop offset="1" stop-color="#F6F4F6"/>
</linearGradient>
<linearGradient id="paint4_linear_102_3" x1="93" y1="51.5" x2="54.0441" y2="107.103" gradientUnits="userSpaceOnUse">
<stop stop-color="white"/>
<stop offset="0.693396" stop-color="#FCEEFF"/>
</linearGradient>
</defs>
</svg>
